<?xml version="1.0" standalone="no"?>
<svg xmlns:xlink="http://www.w3.org/1999/xlink" id="wave" style="transform:rotate(0deg); transition: 0.3s" viewBox="0 0 1440 490" version="1.1" xmlns="http://www.w3.org/2000/svg"><defs><linearGradient id="sw-gradient-0" x1="0" x2="0" y1="1" y2="0"><stop stop-color="rgba(0, 0, 0, 1)" offset="0%"/><stop stop-color="rgba(255, 188.83, 42.56, 1)" offset="100%"/></linearGradient></defs><path style="transform:translate(0, 0px); opacity:1" fill="url(#sw-gradient-0)" d="M0,392L80,383.8C160,376,320,359,480,294C640,229,800,114,960,73.5C1120,33,1280,65,1440,73.5C1600,82,1760,65,1920,73.5C2080,82,2240,114,2400,179.7C2560,245,2720,343,2880,392C3040,441,3200,441,3360,432.8C3520,425,3680,408,3840,392C4000,376,4160,359,4320,302.2C4480,245,4640,147,4800,89.8C4960,33,5120,16,5280,8.2C5440,0,5600,0,5760,57.2C5920,114,6080,229,6240,285.8C6400,343,6560,343,6720,318.5C6880,294,7040,245,7200,228.7C7360,212,7520,229,7680,245C7840,261,8000,278,8160,302.2C8320,327,8480,359,8640,343C8800,327,8960,261,9120,196C9280,131,9440,65,9600,49C9760,33,9920,65,10080,106.2C10240,147,10400,196,10560,196C10720,196,10880,147,11040,179.7C11200,212,11360,327,11440,383.8L11520,441L11520,490L11440,490C11360,490,11200,490,11040,490C10880,490,10720,490,10560,490C10400,490,10240,490,10080,490C9920,490,9760,490,9600,490C9440,490,9280,490,9120,490C8960,490,8800,490,8640,490C8480,490,8320,490,8160,490C8000,490,7840,490,7680,490C7520,490,7360,490,7200,490C7040,490,6880,490,6720,490C6560,490,6400,490,6240,490C6080,490,5920,490,5760,490C5600,490,5440,490,5280,490C5120,490,4960,490,4800,490C4640,490,4480,490,4320,490C4160,490,4000,490,3840,490C3680,490,3520,490,3360,490C3200,490,3040,490,2880,490C2720,490,2560,490,2400,490C2240,490,2080,490,1920,490C1760,490,1600,490,1440,490C1280,490,1120,490,960,490C800,490,640,490,480,490C320,490,160,490,80,490L0,490Z"/></svg>